HIERARCHY
ROOT Hips
{
    OFFSET 0.000000 0.000000 0.000000
    CHANNELS 6 Xposition Yposition Zposition Zrotation Yrotation Xrotation
    JOINT Chest
    {
        OFFSET 0.000000 1.634758 -0.000000
        CHANNELS 3 Zrotation Yrotation Xrotation
        JOINT Chest2
        {
            OFFSET 0.000000 2.197341 0.000000
            CHANNELS 3 Zrotation Yrotation Xrotation
            JOINT Neck
            {
                OFFSET 0.000000 0.961544 0.000000
                CHANNELS 3 Zrotation Yrotation Xrotation
                JOINT Head
                {
                    OFFSET 0.000000 0.632542 -0.032565
                    CHANNELS 3 Zrotation Yrotation Xrotation
                    End Site
                    {
                        OFFSET -0.000001 0.439502 2.922845
                    }
                }
            }
            JOINT LeftCollar
            {
                OFFSET 0.167536 0.778237 -0.168280
                CHANNELS 3 Zrotation Yrotation Xrotation
                JOINT LeftShoulder
                {
                    OFFSET 0.831514 -0.002900 0.006458
                    CHANNELS 3 Zrotation Yrotation Xrotation
                    JOINT LeftElbow
                    {
                        OFFSET 2.272872 -0.026639 0.059314
                        CHANNELS 3 Zrotation Yrotation Xrotation
                        JOINT LeftWrist
                        {
                            OFFSET 2.081982 -0.024402 0.054333
                            CHANNELS 3 Zrotation Yrotation Xrotation
                            JOINT LeftHandThumb1
                            {
                                OFFSET 0.218903 -0.128645 0.283837
                                CHANNELS 3 Zrotation Yrotation Xrotation
                                JOINT LeftHandThumb2
                                {
                                    OFFSET 0.137157 -0.025101 0.077902
                                    CHANNELS 3 Zrotation Yrotation Xrotation
                                    JOINT LeftHandThumb3
                                    {
                                        OFFSET 0.165861 -0.067014 0.039226
                                        CHANNELS 3 Zrotation Yrotation Xrotation
                                        End Site
                                        {
                                            OFFSET 0.241157 -0.045065 0.107930
                                        }
                                    }
                                }
                            }
                            JOINT LeftHandFore1
                            {
                                OFFSET 0.767340 -0.016076 0.196678
                                CHANNELS 3 Zrotation Yrotation Xrotation
                                JOINT LeftHandFore2
                                {
                                    OFFSET 0.212115 -0.043262 0.011444
                                    CHANNELS 3 Zrotation Yrotation Xrotation
                                    JOINT LeftHandFore3
                                    {
                                        OFFSET 0.120862 -0.045841 0.007347
                                        CHANNELS 3 Zrotation Yrotation Xrotation
                                        End Site
                                        {
                                            OFFSET 0.168714 -0.094049 0.007572
                                        }
                                    }
                                }
                            }
                            JOINT LeftHandMiddle1
                            {
                                OFFSET 0.709887 -0.008320 0.018526
                                CHANNELS 3 Zrotation Yrotation Xrotation
                                JOINT LeftHandMiddle2
                                {
                                    OFFSET 0.241138 -0.043217 0.006995
                                    CHANNELS 3 Zrotation Yrotation Xrotation
                                    JOINT LeftHandMiddle3
                                    {
                                        OFFSET 0.137071 -0.050703 0.004910
                                        CHANNELS 3 Zrotation Yrotation Xrotation
                                        End Site
                                        {
                                            OFFSET 0.213767 -0.099275 0.008867
                                        }
                                    }
                                }
                            }
                            JOINT LeftHandRing1
                            {
                                OFFSET 0.743817 -0.005823 -0.153668
                                CHANNELS 3 Zrotation Yrotation Xrotation
                                JOINT LeftHandRing2
                                {
                                    OFFSET 0.347108 -0.064494 -0.009457
                                    CHANNELS 3 Zrotation Yrotation Xrotation
                                    JOINT LeftHandRing3
                                    {
                                        OFFSET 0.130136 -0.040825 0.001833
                                        CHANNELS 3 Zrotation Yrotation Xrotation
                                        End Site
                                        {
                                            OFFSET 0.110091 -0.047923 0.001784
                                        }
                                    }
                                }
                            }
                            JOINT LeftHandLittle1
                            {
                                OFFSET 0.689408 -0.053302 -0.308304
                                CHANNELS 3 Zrotation Yrotation Xrotation
                                JOINT LeftHandLittle2
                                {
                                    OFFSET 0.192118 -0.028163 -0.018748
                                    CHANNELS 3 Zrotation Yrotation Xrotation
                                    JOINT LeftHandLittle3
                                    {
                                        OFFSET 0.112698 -0.040789 -0.011480
                                        CHANNELS 3 Zrotation Yrotation Xrotation
                                        End Site
                                        {
                                            OFFSET 0.174902 -0.074792 -0.010192
                                        }
                                    }
                                }
                            }
                        }
                    }
                }
            }
            JOINT RightCollar
            {
                OFFSET -0.167536 0.778237 -0.168280
                CHANNELS 3 Zrotation Yrotation Xrotation
                JOINT RightShoulder
                {
                    OFFSET -0.831514 -0.002900 0.006457
                    CHANNELS 3 Zrotation Yrotation Xrotation
                    JOINT RightElbow
                    {
                        OFFSET -2.272872 -0.026639 0.059313
                        CHANNELS 3 Zrotation Yrotation Xrotation
                        JOINT RightWrist
                        {
                            OFFSET -2.081982 -0.024402 0.054331
                            CHANNELS 3 Zrotation Yrotation Xrotation
                            JOINT RightHandThumb1
                            {
                                OFFSET -0.218911 -0.128571 0.283837
                                CHANNELS 3 Zrotation Yrotation Xrotation
                                JOINT RightHandThumb2
                                {
                                    OFFSET -0.137157 -0.025101 0.077902
                                    CHANNELS 3 Zrotation Yrotation Xrotation
                                    JOINT RightHandThumb3
                                    {
                                        OFFSET -0.165861 -0.067014 0.039226
                                        CHANNELS 3 Zrotation Yrotation Xrotation
                                        End Site
                                        {
                                            OFFSET -0.229436 -0.065997 0.121819
                                        }
                                    }
                                }
                            }
                            JOINT RightHandFore1
                            {
                                OFFSET -0.767344 -0.015991 0.196679
                                CHANNELS 3 Zrotation Yrotation Xrotation
                                JOINT RightHandFore2
                                {
                                    OFFSET -0.212128 -0.043215 0.011443
                                    CHANNELS 3 Zrotation Yrotation Xrotation
                                    JOINT RightHandFore3
                                    {
                                        OFFSET -0.120926 -0.045827 0.006236
                                        CHANNELS 3 Zrotation Yrotation Xrotation
                                        End Site
                                        {
                                            OFFSET -0.168488 -0.093976 0.012134
                                        }
                                    }
                                }
                            }
                            JOINT RightHandMiddle1
                            {
                                OFFSET -0.709887 -0.008302 0.018525
                                CHANNELS 3 Zrotation Yrotation Xrotation
                                JOINT RightHandMiddle2
                                {
                                    OFFSET -0.241129 -0.043240 0.006995
                                    CHANNELS 3 Zrotation Yrotation Xrotation
                                    JOINT RightHandMiddle3
                                    {
                                        OFFSET -0.137111 -0.050729 0.003410
                                        CHANNELS 3 Zrotation Yrotation Xrotation
                                        End Site
                                        {
                                            OFFSET -0.213892 -0.099304 0.004392
                                        }
                                    }
                                }
                            }
                            JOINT RightHandRing1
                            {
                                OFFSET -0.743819 -0.005785 -0.153669
                                CHANNELS 3 Zrotation Yrotation Xrotation
                                JOINT RightHandRing2
                                {
                                    OFFSET -0.347113 -0.064470 -0.009457
                                    CHANNELS 3 Zrotation Yrotation Xrotation
                                    JOINT RightHandRing3
                                    {
                                        OFFSET -0.129838 -0.040806 -0.009051
                                        CHANNELS 3 Zrotation Yrotation Xrotation
                                        End Site
                                        {
                                            OFFSET -0.109824 -0.047907 -0.007998
                                        }
                                    }
                                }
                            }
                            JOINT RightHandLittle1
                            {
                                OFFSET -0.689403 -0.053298 -0.308303
                                CHANNELS 3 Zrotation Yrotation Xrotation
                                JOINT RightHandLittle2
                                {
                                    OFFSET -0.192122 -0.028157 -0.018749
                                    CHANNELS 3 Zrotation Yrotation Xrotation
                                    JOINT RightHandLittle3
                                    {
                                        OFFSET -0.112704 -0.040786 -0.011395
                                        CHANNELS 3 Zrotation Yrotation Xrotation
                                        End Site
                                        {
                                            OFFSET -0.173428 -0.074546 -0.025578
                                        }
                                    }
                                }
                            }
                        }
                    }
                }
            }
        }
    }
    JOINT LeftHip
    {
        OFFSET 0.685143 0.673822 -0.044491
        CHANNELS 3 Zrotation Yrotation Xrotation
        JOINT LeftKnee
        {
            OFFSET 0.085364 -3.750208 0.017676
            CHANNELS 3 Zrotation Yrotation Xrotation
            JOINT LeftAnkle
            {
                OFFSET 0.094583 -4.155206 0.019585
                CHANNELS 3 Zrotation Yrotation Xrotation
                JOINT LeftToe
                {
                    OFFSET -0.000000 -0.395925 0.621478
                    CHANNELS 3 Zrotation Yrotation Xrotation
                    End Site
                    {
                        OFFSET -0.000000 -0.077878 0.321152
                    }
                }
            }
        }
    }
    JOINT RightHip
    {
        OFFSET -0.685143 0.673822 -0.044492
        CHANNELS 3 Zrotation Yrotation Xrotation
        JOINT RightKnee
        {
            OFFSET -0.085364 -3.750208 0.017677
            CHANNELS 3 Zrotation Yrotation Xrotation
            JOINT RightAnkle
            {
                OFFSET -0.094583 -4.155206 0.019585
                CHANNELS 3 Zrotation Yrotation Xrotation
                JOINT RightToe
                {
                    OFFSET -0.000000 -0.395925 0.621478
                    CHANNELS 3 Zrotation Yrotation Xrotation
                    End Site
                    {
                        OFFSET -0.000000 -0.077878 0.321152
                    }
                }
            }
        }
    }
}
MOTION
Frames: 4
Frame Time: 0.033333
0.637915 8.362277 -0.459021 -174.270432 -0.000011 180.000000 5.815575 2.863496 -0.131897 0.028307 -0.444321 -3.645367 -5.924031 -1.159265 4.627382 0.156571 -3.038276 11.039500 -14.102548 7.905514 -0.083184 -63.458004 24.723619 -9.552744 -0.000001 -0.000003 -0.000002 3.721458 0.692745 -17.590544 0.000004 0.000003 0.000003 -0.000002 -0.000000 -0.000007 0.000001 0.000002 -0.000005 -0.000003 -0.000002 -0.000002 -0.000002 0.000002 0.000002 0.000005 -0.000000 0.000002 0.000000 -0.000002 -0.000003 0.000000 -0.000000 0.000002 -0.000003 -0.000002 0.000002 0.000001 -0.000002 0.000002 -0.000002 -0.000000 0.000002 -0.000002 -0.000000 0.000000 0.000002 0.000002 -0.000007 0.000000 0.000002 0.000002 -0.000006 -0.000002 0.000000 15.079902 0.399804 0.115929 61.890488 -2.274719 0.931002 -0.002149 4.900651 -0.057556 1.063628 0.015065 16.242611 -0.000003 0.000000 -0.000003 0.000001 -0.000001 0.000005 -0.000001 -0.000001 -0.000002 -0.000000 -0.000000 0.000002 -0.000001 0.000001 -0.000003 -0.000001 -0.000002 -0.000002 -0.000001 -0.000001 -0.000005 -0.000003 -0.000000 -0.000002 -0.000001 -0.000000 -0.000002 -0.000002 -0.000001 -0.000005 -0.000000 -0.000000 0.000000 0.000002 0.000000 -0.000002 -0.000002 -0.000000 0.000002 -0.000003 -0.000000 -0.000002 -0.000000 -0.000000 0.000000 6.648727 15.272696 -16.943748 0.324091 0.860350 41.279514 4.957347 7.553893 3.250457 -0.750873 4.378560 -23.371452 10.711811 -0.122533 -1.474065 -0.015830 -0.202609 8.937212 -2.650301 -3.664588 -11.064611 0.006657 0.029503 -0.915260
0.637915 8.362276 -0.459021 -174.270416 -0.000011 180.000000 5.815582 2.863499 -0.131898 0.028304 -0.444320 -3.645377 -5.924031 -1.159266 4.627385 0.156571 -3.038275 11.039508 -14.102655 7.905516 -0.083185 -63.457951 24.723515 -9.552679 0.000001 -0.000000 -0.000002 3.721452 0.692747 -17.590822 0.000002 0.000003 -0.000005 0.000000 -0.000000 -0.000005 0.000001 0.000002 0.000005 0.000006 -0.000003 0.000009 -0.000003 -0.000000 -0.000007 -0.000001 -0.000003 0.000005 0.000009 -0.000000 0.000000 0.000001 0.000002 0.000000 -0.000002 -0.000000 -0.000003 0.000013 -0.000003 0.000005 -0.000003 0.000002 -0.000003 -0.000003 -0.000002 0.000000 0.000006 -0.000005 -0.000007 -0.000001 -0.000002 -0.000003 -0.000003 -0.000000 -0.000002 15.079902 0.399799 0.115929 61.890522 -2.273893 0.930988 -0.002148 4.898905 -0.057536 1.063628 0.014383 16.242588 0.000000 0.000000 0.000002 0.000002 0.000000 0.000002 0.000000 -0.000002 0.000000 -0.000002 0.000002 -0.000003 0.000001 0.000000 -0.000002 0.000002 -0.000000 0.000000 -0.000002 0.000001 -0.000002 -0.000003 -0.000001 0.000000 0.000002 0.000001 0.000002 -0.000001 0.000001 -0.000012 0.000002 0.000000 0.000000 0.000000 -0.000001 -0.000002 -0.000006 0.000002 -0.000003 -0.000000 -0.000000 -0.000002 -0.000003 0.000001 -0.000003 6.648672 15.272730 -16.942938 0.324067 0.860323 41.277912 4.957548 7.553822 3.251252 -0.751106 4.378921 -23.373611 10.712032 -0.122223 -1.473429 -0.015825 -0.202581 8.935945 -2.650524 -3.664905 -11.063676 0.006662 0.029527 -0.915952
0.637915 8.362273 -0.459021 -174.270416 -0.000011 180.000000 5.815582 2.863499 -0.131905 0.028305 -0.444321 -3.645376 -5.924031 -1.159265 4.627390 0.156571 -3.038275 11.039515 -14.102888 7.905526 -0.083188 -63.457901 24.723169 -9.552454 0.000000 -0.000002 0.000000 3.721428 0.692752 -17.591661 0.000000 0.000002 -0.000015 -0.000001 -0.000000 -0.000003 -0.000001 -0.000000 -0.000003 0.000005 -0.000007 0.000007 0.000001 -0.000000 0.000003 0.000007 -0.000000 0.000002 -0.000002 -0.000009 0.000002 0.000003 -0.000000 0.000002 -0.000002 0.000002 0.000000 0.000009 -0.000005 -0.000002 0.000000 0.000002 0.000002 -0.000002 -0.000002 0.000002 -0.000001 -0.000002 -0.000003 -0.000005 -0.000003 0.000003 0.000002 -0.000002 0.000003 15.079956 0.399797 0.115929 61.890511 -2.272729 0.930965 -0.002148 4.896456 -0.057507 1.063629 0.012352 16.242540 0.000013 0.000003 -0.000005 0.000000 0.000000 0.000002 0.000000 -0.000003 0.000000 0.000003 0.000001 -0.000009 0.000001 -0.000000 0.000002 0.000003 0.000001 0.000000 0.000000 -0.000002 -0.000012 -0.000003 -0.000000 0.000000 -0.000002 0.000001 0.000002 0.000000 -0.000001 -0.000012 0.000003 0.000002 0.000002 0.000001 -0.000001 0.000000 -0.000001 -0.000001 -0.000009 -0.000001 -0.000000 -0.000005 -0.000005 -0.000002 0.000002 6.648484 15.272773 -16.940367 0.323992 0.860237 41.272858 4.958153 7.553631 3.253734 -0.751827 4.380056 -23.380325 10.712676 -0.121298 -1.471855 -0.015814 -0.202509 8.932774 -2.651173 -3.665848 -11.061175 0.006674 0.029587 -0.917896
0.637915 8.362268 -0.459021 -174.270416 -0.000011 180.000000 5.815581 2.863499 -0.131915 0.028307 -0.444321 -3.645393 -5.924031 -1.159263 4.627405 0.156571 -3.038273 11.039538 -14.103280 7.905544 -0.083190 -63.457798 24.722628 -9.552124 -0.000002 -0.000003 0.000002 3.721389 0.692755 -17.593042 0.000012 -0.000002 -0.000005 0.000003 -0.000000 -0.000003 0.000000 0.000002 0.000000 0.000008 -0.000007 0.000020 -0.000004 -0.000002 -0.000005 0.000003 -0.000000 -0.000002 0.000010 -0.000003 0.000007 0.000003 0.000002 0.000003 0.000000 -0.000002 -0.000005 0.000016 -0.000000 0.000005 -0.000001 0.000002 0.000002 -0.000001 -0.000003 -0.000005 0.000012 0.000002 0.000005 0.000003 0.000002 -0.000003 -0.000004 -0.000002 0.000007 15.079956 0.399792 0.115930 61.890572 -2.270992 0.930929 -0.002148 4.892783 -0.057464 1.063632 0.008983 16.242447 0.000003 -0.000006 0.000009 0.000002 0.000001 0.000002 0.000004 -0.000003 -0.000002 -0.000001 -0.000003 -0.000003 -0.000001 -0.000001 -0.000002 -0.000000 -0.000001 0.000002 -0.000000 -0.000002 -0.000007 -0.000004 -0.000001 0.000000 0.000001 -0.000001 -0.000003 -0.000002 -0.000002 -0.000007 -0.000001 -0.000001 -0.000003 0.000003 -0.000000 -0.000002 -0.000002 -0.000000 -0.000007 -0.000000 -0.000001 0.000002 -0.000001 -0.000001 -0.000002 6.648175 15.272874 -16.936132 0.323866 0.860095 41.264542 4.959159 7.553298 3.257819 -0.753024 4.381940 -23.391430 10.713742 -0.119770 -1.468839 -0.015793 -0.202374 8.926744 -2.652273 -3.667405 -11.056668 0.006697 0.029696 -0.921276
